HIERARCHY
ROOT Hips
{
	OFFSET	0	0	0
	CHANNELS 6  Xposition Yposition Zposition Xrotation Yrotation Zrotation
	JOINT Spine
	{
		OFFSET	0	7.0817	1.42564
		CHANNELS 3  Xrotation Yrotation Zrotation
		JOINT Spine1
		{
			OFFSET	0	12.1578	-2.17103
			CHANNELS 3  Xrotation Yrotation Zrotation
			JOINT Spine2
			{
				OFFSET	0	9.21601	0.987817
				CHANNELS 3  Xrotation Yrotation Zrotation
				JOINT Spine3
				{
					OFFSET	0	11.0288	3.27825
					CHANNELS 3  Xrotation Yrotation Zrotation
					JOINT Spine4
					{
						OFFSET	0	16.3261	-1.67169
						CHANNELS 3  Xrotation Yrotation Zrotation
						JOINT Neck
						{
							OFFSET	0	7.79399	-5.46013
							CHANNELS 3  Xrotation Yrotation Zrotation
							JOINT Head
							{
								OFFSET	0	9.35713	-2.80063
								CHANNELS 3  Xrotation Yrotation Zrotation
								End Site
								{
									OFFSET	0	19.5175	-0.944397
								}
							}
						}
					}
					JOINT LeftShoulder
					{
						OFFSET	-4.68942	19.8432	-9.35713
						CHANNELS 3  Xrotation Yrotation Zrotation
						JOINT LeftArm
						{
							OFFSET	-10.2519	-2.80063	3.59307
							CHANNELS 3  Xrotation Yrotation Zrotation
							JOINT LeftForeArm
							{
								OFFSET	-34.1249	-1.55752	2.4358
								CHANNELS 3  Xrotation Yrotation Zrotation
								JOINT LeftHand
								{
									OFFSET	-28.1809	-1.94746	2.01152
									CHANNELS 3  Xrotation Yrotation Zrotation
									End Site
									{
										OFFSET	-10.2846	-0.710727	0.734058
									}
								}
							}
						}
					}
					JOINT RightShoulder
					{
						OFFSET	4.68942	19.8432	-9.35713
						CHANNELS 3  Xrotation Yrotation Zrotation
						JOINT RightArm
						{
							OFFSET	10.2519	-2.80063	3.59307
							CHANNELS 3  Xrotation Yrotation Zrotation
							JOINT RightForeArm
							{
								OFFSET	34.1249	-1.55752	2.4358
								CHANNELS 3  Xrotation Yrotation Zrotation
								JOINT RightHand
								{
									OFFSET	28.1809	-1.94746	2.01152
									CHANNELS 3  Xrotation Yrotation Zrotation
									End Site
									{
										OFFSET	10.2846	-0.710727	0.734058
									}
								}
							}
						}
					}
				}
			}
		}
	}
	JOINT LeftUpLeg
	{
		OFFSET	-9.64475	-3.54085	-0.712821
		CHANNELS 3  Xrotation Yrotation Zrotation
		JOINT LeftLeg
		{
			OFFSET	-2.14734	-42.0762	-0.657743
			CHANNELS 3  Xrotation Yrotation Zrotation
			JOINT LeftFoot
			{
				OFFSET	-2.09898	-38.6909	3.32741
				CHANNELS 3  Xrotation Yrotation Zrotation
				JOINT LeftToeBase
				{
					OFFSET	0	-4.81787	-12.7963
					CHANNELS 3  Xrotation Yrotation Zrotation
					End Site
					{
						OFFSET	0	-1.92715	-7.70859
					}
				}
			}
		}
	}
	JOINT RightUpLeg
	{
		OFFSET	9.64475	-3.54085	-0.712821
		CHANNELS 3  Xrotation Yrotation Zrotation
		JOINT RightLeg
		{
			OFFSET	2.14734	-42.0762	-0.657743
			CHANNELS 3  Xrotation Yrotation Zrotation
			JOINT RightFoot
			{
				OFFSET	2.09898	-38.6909	3.32741
				CHANNELS 3  Xrotation Yrotation Zrotation
				JOINT RightToeBase
				{
					OFFSET	0	-4.81787	-12.7963
					CHANNELS 3  Xrotation Yrotation Zrotation
					End Site
					{
						OFFSET	0	-1.92715	-7.70859
					}
				}
			}
		}
	}
}
MOTION
Frames: 9
Frame Time: 0.020408
 0 -10.1657 2.85827 -0 0 -0 -0 0 -0 -0 0 -0 -0 0 -0 -0 0 -0 -0 0 -0 -0 0 -0 -0 0 -0 -0 0 -0 -0 0 -0 -0 0 -0 -0 0 -0 -0 0 -0 -0 0 -0 -0 0 -0 -0 0 -0 -0 0 -0 -0 0 -0 -0 0 -0 -0 0 -0 -0 0 -0 -0 0 -0 -0 0 -0 -0 0 -0
 42.7653 90.9398 -310.647 145.091 -132.379 131.386 179.996 179.941 -175.857 12.1052 0.116915 6.90418 12.0088 0.350746 6.90429 7.87105 0.0587308 4.1425 4.51503 0.108721 1.37655 0.394404 11.037 13.3143 0.408531 4.35897 4.2436 0.00843566 19.8003 0.0124459 167.796 131.414 -114.385 165.917 -79.4193 164.24 -0 2.83416 5.55002 168.48 154.13 -154.296 119.758 -156.063 -172.665 128.549 145.954 -142.489 -0 -50.1869 -52.6705 58.5565 -41.5733 36.713 0.574966 -1.44931 -0.0553651 39.3302 -0.133929 -10.7123 4.1159 0 0 97.9596 -66.8867 90.192 171.45 -166.426 179.406 0.402547 -0.289582 -13.0301 3.35091 0 0
 42.6084 90.8672 -310.549 145.941 -133.053 132.072 179.998 179.969 -175.751 12.0378 0.0609744 7.08203 11.9423 0.182923 7.08206 7.78699 0.0306371 4.24921 4.57594 0.113024 1.41189 0.643774 11.05 13.2209 0.481961 4.34011 4.22272 179.753 160.628 179.633 167.062 132.605 -114.802 166.091 -78.8833 164.472 -0 1.8097 5.68881 168.442 154.235 -154.205 119.45 -156.276 -173.634 129.05 146.071 -143.004 -0 -50.6093 -53.3867 56.879 -41.7685 35.2506 2.55783 -0.547015 0.0875141 38.8806 -0.0015358 -11.4639 4.12763 0 0 97.9925 -67.0561 90.4943 171.319 -166.257 -179.952 0.608528 -0.247441 -12.4832 3.4207 0 0
 43.8949 90.517 -310.277 147.148 -133.574 133.347 0.000758418 -0.00994569 4.36071 11.9774 -0.0197888 7.26784 11.8925 -0.0593665 7.26785 7.71395 -0.00994569 4.36071 4.62035 0.117114 1.44884 0.845215 11.0252 13.1205 0.540203 4.29404 4.19638 179.248 160.954 178.874 167.358 133.69 -116.368 166.578 -78.1342 165.104 -0 0.733508 5.65988 168.518 153.997 -154.386 119.043 -155.899 -174.478 129.345 145.985 -143.38 -0 -50.6546 -53.9221 54.7453 -42.2481 34.4524 5.27137 0.0561014 0.0442152 37.2191 -0.0320965 -11.475 4.1326 0 0 95.914 -69.4313 90.117 172.551 -166.992 -179.106 0.0513487 -0.0220999 -11.5199 3.47363 0 0
 45.3098 90.0546 -309.275 146.468 -132.859 133.591 179.996 179.951 -175.603 11.9111 0.0982648 7.32787 11.7707 0.294794 7.32795 7.59985 0.0493912 4.39672 4.7793 0.122135 1.46047 1.33572 11.2155 13.0882 0.691179 4.36595 4.20785 178.597 160.841 177.904 167.946 134.416 -118.521 167.327 -77.3155 165.916 -0 -0.273042 5.56512 168.539 153.727 -154.437 118.629 -155.676 -175.215 129.528 145.273 -143.346 -0 -50.2986 -54.4078 51.1992 -43.3658 33.0709 6.56247 0.728958 -0.230386 36.8351 0.137675 -11.514 4.13473 0 0 96.6945 -72.7026 92.179 175.082 -167.256 178.488 0.867501 -0.793805 -15.657 3.4425 0 0
 45.863 89.9419 -308.712 146.936 -133.153 134.535 179.995 179.94 -175.542 11.8213 0.119211 7.43046 11.6619 0.357632 7.43059 7.50158 0.0599282 4.45827 4.84233 0.125475 1.48078 1.60697 11.2275 12.9704 0.770119 4.36385 4.18172 178.656 160.541 178.003 168.394 135.141 -119.429 167.92 -76.384 166.478 -0 -1.21136 5.37381 168.429 153.62 -154.179 118.081 -155.541 -176.733 129.828 144.444 -142.927 -0 -49.8161 -54.7382 48.1604 -44.3269 31.326 9.12205 1.10918 -0.244704 36.0704 0.11614 -11.5098 4.13022 0 0 97.0646 -75.0815 93.285 177.278 -167.921 177.738 0.510282 -1.00387 -15.3862 3.50014 0 0
 46.3541 89.7387 -308.105 147.649 -133.405 135.824 179.994 179.92 -175.491 11.7546 0.158263 7.51546 11.5726 0.474787 7.51569 7.42328 0.0795699 4.50926 4.90525 0.128556 1.49758 1.8386 11.322 12.9614 0.841681 4.39778 4.18914 178.309 160.068 177.509 169.679 135.473 -121.468 168.517 -75.3386 167.124 -0 -2.2803 4.9752 168.442 153.448 -154.212 117.476 -155.554 -178.118 129.715 143.824 -142.362 -0 -49.8885 -54.9283 45.5395 -45.4016 28.3148 11.4071 1.23146 -0.170852 36.0151 0.0714981 -11.4809 4.12365 0 0 97.804 -77.3533 94.5407 179.1 -168.404 177.773 0.375901 -1.18402 -15.4873 3.55813 0 0
 46.6265 89.6664 -307.474 148.621 -134.139 136.857 179.995 179.934 -175.347 11.6944 0.132068 7.75429 11.4992 0.396203 7.75445 7.32496 0.0664237 4.65256 5.01744 0.135669 1.54491 2.22004 11.4261 12.8734 0.956083 4.45205 4.17949 178.174 159.776 177.325 170.56 135.999 -122.875 169.061 -74.1891 167.699 -0 -3.23055 4.67419 168.497 153.471 -154.341 116.938 -155.666 -179.266 129.511 143.634 -142.005 -0 -50.3337 -54.6973 42.6144 -46.1081 24.5423 11.6623 1.05408 -0.414918 34.5313 0.186249 -11.5068 4.11412 0 0 98.5252 -79.5536 95.5144 1.99927 -11.2439 -2.00308 179.723 -178.617 164.45 3.6324 0 0
 48.3411 89.3276 -306.792 150.613 -134.318 139.574 179.996 179.946 -175.318 11.5128 0.107021 7.80285 11.2875 0.321064 7.80296 7.09279 0.0538306 4.6817 5.21207 0.1418 1.55411 2.9623 11.558 12.6454 1.17601 4.50935 4.14058 177.757 159.481 176.731 170.592 137.062 -124.219 169.284 -73.5914 167.889 -0 -4.01145 4.49757 168.537 153.591 -154.433 116.278 -156.294 179.724 129.231 143.346 -141.65 -0 -51.0017 -54.4261 40.8426 -47.0625 21.0745 11.6846 0.339173 -0.351243 33.3681 0.233234 -11.5145 4.10292 0 0 98.5053 -81.885 96.803 2.69022 -11.0161 -1.40223 0.315987 -1.23605 -15.8979 3.75888 0 0
